HIERARCHY
ROOT hips
{
  OFFSET 0 10.6860622 2.3727825e-15
  CHANNELS 6 Xposition Yposition Zposition Yrotation Xrotation Zrotation
  JOINT leftUpperLeg
  {
    OFFSET 0.6642549969 -0.9402397400000004 0
    CHANNELS 3 Yrotation Xrotation Zrotation
    JOINT leftLowerLeg
    {
      OFFSET 0 -3.997221335632195 0
      CHANNELS 3 Yrotation Xrotation Zrotation
      JOINT leftFoot
      {
        OFFSET -0.13777839790000004 -4.6145792000000005 -0.22186036399999998
        CHANNELS 3 Yrotation Xrotation Zrotation
        JOINT leftToes
        {
          OFFSET -0.03777410834999995 -0.9130806927000008 0.85230013
          CHANNELS 3 Yrotation Xrotation Zrotation
          End Site
          {
            OFFSET -0.03777410834999995 -0.9130806927000008 0.85230013
          }
        }
      }
    }
  }
  JOINT rightUpperLeg
  {
    OFFSET -0.6642778626 -0.9402397400000004 0
    CHANNELS 3 Yrotation Xrotation Zrotation
    JOINT rightLowerLeg
    {
      OFFSET 0 -3.997221452859387 0
      CHANNELS 3 Yrotation Xrotation Zrotation
      JOINT rightFoot
      {
        OFFSET 0.1377926176 -4.6145792000000005 -0.22185782299999995
        CHANNELS 3 Yrotation Xrotation Zrotation
        JOINT rightToes
        {
          OFFSET 0.037780746850000047 -0.9130806927000008 0.85230167
          CHANNELS 3 Yrotation Xrotation Zrotation
          End Site
          {
            OFFSET 0.037780746850000047 -0.9130806927000008 0.85230167
          }
        }
      }
    }
  }
  JOINT spine
  {
    OFFSET 0 0.13988381660000015 0
    CHANNELS 3 Yrotation Xrotation Zrotation
    JOINT chest
    {
      OFFSET 0 0.6191039003973773 0
      CHANNELS 3 Yrotation Xrotation Zrotation
      JOINT upperChest
      {
        OFFSET 0 0.9855186130586943 0
        CHANNELS 3 Yrotation Xrotation Zrotation
        JOINT leftShoulder
        {
          OFFSET 0.1807663869 1.5087829790000005 0
          CHANNELS 3 Yrotation Xrotation Zrotation
          JOINT leftUpperArm
          {
            OFFSET 0.5985063006419806 0 0
            CHANNELS 3 Yrotation Xrotation Zrotation
            JOINT leftLowerArm
            {
              OFFSET 2.2993332369501065 0 0
              CHANNELS 3 Yrotation Xrotation Zrotation
              JOINT leftHand
              {
                OFFSET 2.395047042602395 0 0
                CHANNELS 3 Yrotation Xrotation Zrotation
                JOINT leftIndexProximal
                {
                  OFFSET 0.5766295810000004 0.04556643899499946 0.17265095988184
                  CHANNELS 3 Yrotation Xrotation Zrotation
                  JOINT leftIndexIntermediate
                  {
                    OFFSET 0.2957229000000008 -0.019352197700001517 -0.007932640616999987
                    CHANNELS 3 Yrotation Xrotation Zrotation
                    JOINT leftIndexDistal
                    {
                      OFFSET 0.19008243099999922 -0.012484908149998475 -0.002786250786000012
                      CHANNELS 3 Yrotation Xrotation Zrotation
                      End Site
                      {
                        OFFSET 0.19008243099999922 -0.012484908149998475 -0.002786250786000012
                      }
                    }
                  }
                }
                JOINT leftMiddleProximal
                {
                  OFFSET 0.5834975091000001 0.0524350405149987 0.02204081888183999
                  CHANNELS 3 Yrotation Xrotation Zrotation
                  JOINT leftMiddleIntermediate
                  {
                    OFFSET 0.33880573540000003 -0.019871473270000717 -0.00000971183179999946
                    CHANNELS 3 Yrotation Xrotation Zrotation
                    JOINT leftMiddleDistal
                    {
                      OFFSET 0.20676022730000088 -0.012221336379999448 0.0001471936708000235
                      CHANNELS 3 Yrotation Xrotation Zrotation
                      End Site
                      {
                        OFFSET 0.20676022730000088 -0.012221336379999448 0.0001471936708000235
                      }
                    }
                  }
                }
                JOINT leftLittleProximal
                {
                  OFFSET 0.5344154683999995 -0.012880921405001189 -0.24414037221816004
                  CHANNELS 3 Yrotation Xrotation Zrotation
                  JOINT leftLittleIntermediate
                  {
                    OFFSET 0.21758961730000093 -0.011650919939999227 0.011893592810000034
                    CHANNELS 3 Yrotation Xrotation Zrotation
                    JOINT leftLittleDistal
                    {
                      OFFSET 0.1475273964999999 -0.008152365682999818 0.006001092492999946
                      CHANNELS 3 Yrotation Xrotation Zrotation
                      End Site
                      {
                        OFFSET 0.1475273964999999 -0.008152365682999818 0.006001092492999946
                      }
                    }
                  }
                }
                JOINT leftRingProximal
                {
                  OFFSET 0.5799399463000003 0.026911854694997794 -0.12150566991816003
                  CHANNELS 3 Yrotation Xrotation Zrotation
                  JOINT leftRingIntermediate
                  {
                    OFFSET 0.26167887460000006 -0.013480186499999602 0.010996293000000053
                    CHANNELS 3 Yrotation Xrotation Zrotation
                    JOINT leftRingDistal
                    {
                      OFFSET 0.17667108799999987 -0.008990287899999228 0.0055541023999999065
                      CHANNELS 3 Yrotation Xrotation Zrotation
                      End Site
                      {
                        OFFSET 0.17667108799999987 -0.008990287899999228 0.0055541023999999065
                      }
                    }
                  }
                }
                JOINT leftThumbProximal
                {
                  OFFSET 0.11018806699999972 -0.09448718900500053 0.17047963138184
                  CHANNELS 3 Yrotation Xrotation Zrotation
                  JOINT leftThumbIntermediate
                  {
                    OFFSET 0.31062601459999983 -0.08126270900000132 0.15443142000000007
                    CHANNELS 3 Yrotation Xrotation Zrotation
                    JOINT leftThumbDistal
                    {
                      OFFSET 0.21627175790000086 -0.08833193599999878 0.018771167799999988
                      CHANNELS 3 Yrotation Xrotation Zrotation
                      End Site
                      {
                        OFFSET 0.21627175790000086 -0.08833193599999878 0.018771167799999988
                      }
                    }
                  }
                }
              }
            }
          }
        }
        JOINT neck
        {
          OFFSET 0 1.5463305265074576 0
          CHANNELS 3 Yrotation Xrotation Zrotation
          JOINT head
          {
            OFFSET 0 0.8456443600000344 0
            CHANNELS 3 Yrotation Xrotation Zrotation
            JOINT leftEye
            {
              OFFSET 0.30408573140000006 0.5104519199999995 0.1276382305
              CHANNELS 3 Yrotation Xrotation Zrotation
              End Site
              {
                OFFSET 0.30408573140000006 0.5104519199999995 0.1276382305
              }
            }
            JOINT rightEye
            {
              OFFSET -0.30409491089999996 0.5104519199999995 0.1276379445
              CHANNELS 3 Yrotation Xrotation Zrotation
              End Site
              {
                OFFSET -0.30409491089999996 0.5104519199999995 0.1276379445
              }
            }
            JOINT jaw
            {
              OFFSET -3.155239131000001e-7 -0.11984121820000082 0.60178107
              CHANNELS 3 Yrotation Xrotation Zrotation
              End Site
              {
                OFFSET -3.155239131000001e-7 -0.11984121820000082 0.60178107
              }
            }
          }
        }
        JOINT rightShoulder
        {
          OFFSET -0.1807303465 1.5087829790000005 0
          CHANNELS 3 Yrotation Xrotation Zrotation
          JOINT rightUpperArm
          {
            OFFSET -0.5985063796536958 0 0
            CHANNELS 3 Yrotation Xrotation Zrotation
            JOINT rightLowerArm
            {
              OFFSET -2.2993322059002854 0 0
              CHANNELS 3 Yrotation Xrotation Zrotation
              JOINT rightHand
              {
                OFFSET -2.395045314457259 0 0
                CHANNELS 3 Yrotation Xrotation Zrotation
                JOINT rightIndexProximal
                {
                  OFFSET -0.5764487688300002 0.0441371204405987 0.17361932004999997
                  CHANNELS 3 Yrotation Xrotation Zrotation
                  JOINT rightIndexIntermediate
                  {
                    OFFSET -0.29573011380000047 -0.01934826376999843 -0.007698921482999974
                    CHANNELS 3 Yrotation Xrotation Zrotation
                    JOINT rightIndexDistal
                    {
                      OFFSET -0.19008373999999884 -0.012503266380000655 -0.0026365778999999897
                      CHANNELS 3 Yrotation Xrotation Zrotation
                      End Site
                      {
                        OFFSET -0.19008373999999884 -0.012503266380000655 -0.0026365778999999897
                      }
                    }
                  }
                }
                JOINT rightMiddleProximal
                {
                  OFFSET -0.5834852037300005 0.05211639405060153 0.02307162440000001
                  CHANNELS 3 Yrotation Xrotation Zrotation
                  JOINT rightMiddleIntermediate
                  {
                    OFFSET -0.33880114510000003 -0.019952774050000954 0.0002455003561999819
                    CHANNELS 3 Yrotation Xrotation Zrotation
                    JOINT rightMiddleDistal
                    {
                      OFFSET -0.20675694929999955 -0.012273788999999091 0.00030209124000002766
                      CHANNELS 3 Yrotation Xrotation Zrotation
                      End Site
                      {
                        OFFSET -0.20675694929999955 -0.012273788999999091 0.00030209124000002766
                      }
                    }
                  }
                }
                JOINT rightLittleProximal
                {
                  OFFSET -0.5346811737299992 -0.011214256288399227 -0.24363941305000003
                  CHANNELS 3 Yrotation Xrotation Zrotation
                  JOINT rightLittleIntermediate
                  {
                    OFFSET -0.21757715980000092 -0.011771559690000988 0.01201554387
                    CHANNELS 3 Yrotation Xrotation Zrotation
                    JOINT rightLittleDistal
                    {
                      OFFSET -0.1475201849000004 -0.00822055339600003 0.006082065407000015
                      CHANNELS 3 Yrotation Xrotation Zrotation
                      End Site
                      {
                        OFFSET -0.1475201849000004 -0.00822055339600003 0.006082065407000015
                      }
                    }
                  }
                }
                JOINT rightRingProximal
                {
                  OFFSET -0.5800810755299999 0.027657985680600072 -0.12066365025000003
                  CHANNELS 3 Yrotation Xrotation Zrotation
                  JOINT rightRingIntermediate
                  {
                    OFFSET -0.26166445029999974 -0.013623118409999302 0.011164098990000045
                    CHANNELS 3 Yrotation Xrotation Zrotation
                    JOINT rightRingDistal
                    {
                      OFFSET -0.17666387530000027 -0.009072900100000503 0.005668185599999959
                      CHANNELS 3 Yrotation Xrotation Zrotation
                      End Site
                      {
                        OFFSET -0.17666387530000027 -0.009072900100000503 0.005668185599999959
                      }
                    }
                  }
                }
                JOINT rightThumbProximal
                {
                  OFFSET -0.10997596379000074 -0.09577489355940072 0.16989765924999997
                  CHANNELS 3 Yrotation Xrotation Zrotation
                  JOINT rightThumbIntermediate
                  {
                    OFFSET -0.31036620999999986 -0.08229339117999834 0.15440884469999996
                    CHANNELS 3 Yrotation Xrotation Zrotation
                    JOINT rightThumbDistal
                    {
                      OFFSET -0.21631306399999906 -0.08825326400000111 0.018656797720000014
                      CHANNELS 3 Yrotation Xrotation Zrotation
                      End Site
                      {
                        OFFSET -0.21631306399999906 -0.08825326400000111 0.018656797720000014
                      }
                    }
                  }
                }
              }
            }
          }
        }
      }
    }
  }
}
MOTION
Frames: 7
Frame Time: 0.03333333333333333
0 -10.386017323533302 0.19172950810702288 0 -82.12744836670834 0 -36.228232910982825 -37.55999631067788 62.70436472554023 153.85650490381687 77.51977021624381 151.47574146587246 2.3650158271201187 19.03262474881652 0.2916876917650689 0 0 0 14.499467138686395 -3.189428335604497 -58.435158728630235 -4.419162465399645 36.72211730362406 -5.834238555494952 -2.541230010789137 19.38628890967657 0.2753682310666452 0 0 0 0 13.929633214116064 0 -0.6359423848788023 2.905563723985618 -0.16899150784770597 0 0 0 13.428418903001305 12.00676868264339 10.322760124244674 6.80165436975265 32.01071665541571 -79.62372336131445 -81.98252739623699 33.79105488488735 -5.272645378947685 -5.835478872297575 27.41811643416738 -13.450134450959958 0 0 0 0 0 0 0 0 0 0 0 0 0 0 0 0 0 0 0 0 0 0 0 0 0 0 0 0 0 0 0 0 0 0 0 0 0 0 0 0 0 0 0 0 0 8.09288088083073 19.08149755648311 19.817728943302797 12.787665482844176 4.016750426187309 12.190866656767785 0 0 0 0 0 0 0 0 0 -13.419468328533618 11.855735484879588 -10.67472981262052 -6.828219759902484 32.09989618859478 79.57473748094593 82.25256154174991 33.798702573886075 5.27041129903532 5.85800638531303 27.410185597135342 13.581587141344473 0 0 0 0 0 0 0 0 0 0 0 0 0 0 0 0 0 0 0 0 0 0 0 0 0 0 0 0 0 0 0 0 0 0 0 0 0 0 0 0 0 0 0 0 0
0 -10.386017323533302 0.1962944580535323 0 -81.93973116361671 0 -36.428288459522165 -37.64073934937737 62.83947506628133 153.85650490381687 77.51977021624381 151.47574146587246 2.377488948004718 19.041813609277575 0.16522801612242347 0 0 0 14.505838419300444 -3.6038894200552223 -58.5425386601474 -4.466341307713939 37.02081648783549 -5.87539285912126 -2.5573044036729202 19.404167236128817 0.4155655456618322 0 0 0 0 13.929633214116064 0 -0.6356836099101919 2.439097732517622 -0.16379159327672352 0 0 0 13.566085686805904 12.239290342963802 10.562613358256634 6.798796346654812 32.068234996053704 -79.73152342849133 -81.98252688759922 33.79105488488735 -5.272644867462644 -5.913357480818221 27.50953244549618 -13.59399598685265 0 0 0 0 0 0 0 0 0 0 0 0 0 0 0 0 0 0 0 0 0 0 0 0 0 0 0 0 0 0 0 0 0 0 0 0 0 0 0 0 0 0 0 0 0 8.080176643381732 18.821184286487313 19.77862580394219 12.781983995136423 3.6421748697949723 12.105667935494566 0 0 0 0 0 0 0 0 0 -13.557206124958544 12.084303758035285 -10.922763358736878 -6.825720005839076 32.159532070362815 79.6818874272481 82.25256154174991 33.798702573886075 5.27041129903532 5.936651929058744 27.50129086696937 13.728758985501115 0 0 0 0 0 0 0 0 0 0 0 0 0 0 0 0 0 0 0 0 0 0 0 0 0 0 0 0 0 0 0 0 0 0 0 0 0 0 0 0 0 0 0 0 0
0 -10.386017323533302 0.2008594080000417 0 -81.75197368054023 0 -36.62879932714453 -37.72110827088098 62.97508965421235 153.85650490381687 77.51977021624381 151.47574146587246 2.3899411141697544 19.051030075774374 0.03876347209839277 0 0 0 14.512992389214357 -4.018337649787808 -58.650017679303076 -4.51397682620342 37.31948795391597 -5.917019462345297 -2.5733340796620054 19.422081928813636 0.5557729757651486 0 0 0 0 13.929633214116064 0 -0.6354673319856365 1.9726315690656535 -0.15859541473512664 0 0 0 13.704870936915905 12.47124565680399 10.803251119607946 6.7958083629405985 32.12575324330895 -79.83939459722222 -81.98252637896142 33.79105488488735 -5.272644355977603 -5.991560475385916 27.600773990795854 -13.738119474435793 0 0 0 0 0 0 0 0 0 0 0 0 0 0 0 0 0 0 0 0 0 0 0 0 0 0 0 0 0 0 0 0 0 0 0 0 0 0 0 0 0 0 0 0 0 8.067679682034449 18.56086282235802 19.739642821253792 12.776862719608193 3.2675913636793537 12.020540583264081 0 0 0 0 0 0 0 0 0 -13.696073513944931 12.312286172034662 -11.171571669013645 -6.823086482017089 32.21915856484609 79.78911211204975 82.25256154174991 33.798702573886075 5.27041129903532 6.015626522321019 27.592217294276956 13.87619549994064 0 0 0 0 0 0 0 0 0 0 0 0 0 0 0 0 0 0 0 0 0 0 0 0 0 0 0 0 0 0 0 0 0 0 0 0 0 0 0 0 0 0 0 0 0
0 -10.386017323533302 0.20998930789306053 0 -81.37652286555353 0 -37.03117802947518 -37.88070654037899 63.24779930226765 153.85650490381687 77.51977021624381 151.47574146587246 2.414782594380291 19.069527779310015 -0.2141750537993015 0 0 0 14.52965165393258 -4.847003628543263 -58.865228673797354 -4.610638444428961 37.916679592116225 -6.0017109348812 -2.6052582522767627 19.458024089993323 0.8362112579574567 0 0 0 0 13.929633214116064 0 -0.6351622501617931 1.03994838463272 -0.14821386033465692 0 0 0 13.985773062606773 12.933363898751416 11.286841052232104 6.789446983629872 32.240773538580164 -80.05534332779995 -81.98252739623699 33.79105488488735 -5.272645378947685 -6.14892865030706 27.782721285266792 -14.027129497727131 0 0 0 0 0 0 0 0 0 0 0 0 0 0 0 0 0 0 0 0 0 0 0 0 0 0 0 0 0 0 0 0 0 0 0 0 0 0 0 0 0 0 0 0 0 8.043292194388343 18.039944172469912 19.661996454222912 12.768291452241368 2.517620818970171 11.850291065282626 0 0 0 0 0 0 0 0 0 -13.977182187427893 12.766403730975995 -11.671478033249997 -6.817430081247449 32.33840378663923 80.00375883677442 82.25256154174991 33.798702573886075 5.27041129903532 6.1745568263677315 27.773513458254133 14.17184724476581 0 0 0 0 0 0 0 0 0 0 0 0 0 0 0 0 0 0 0 0 0 0 0 0 0 0 0 0 0 0 0 0 0 0 0 0 0 0 0 0 0 0 0 0 0
0 -10.386017323533302 0.2145543920357056 0 -81.1888006642088 0 -37.23304205223774 -37.959929399552365 63.38490037520273 153.85650490381687 77.51977021624381 151.47574146587246 2.4271716161528043 19.078819864825476 -0.3406477754096745 0 0 0 14.539154607867932 -5.261173194320993 -58.97300430298226 -4.659680449128493 38.21519315768293 -6.044790941938822 -2.6211520735515883 19.47604434227401 0.9764406371679769 0 0 0 0 13.929633214116064 0 -0.6350728886964783 0.5737912648754804 -0.14302773699597393 0 0 0 14.127889878755083 13.163503033766519 11.529793415103581 6.78606809078797 32.29827568213411 -80.16342465952242 -81.98252746073969 33.79105488488735 -5.272645378947685 -6.228096638602369 27.873426599444592 -14.172021763731376 0 0 0 0 0 0 0 0 0 0 0 0 0 0 0 0 0 0 0 0 0 0 0 0 0 0 0 0 0 0 0 0 0 0 0 0 0 0 0 0 0 0 0 0 0 8.03139583267317 17.77935680553643 19.62332764590826 12.764839783578099 2.142271410500587 11.765162841159754 0 0 0 0 0 0 0 0 0 -14.119416871260752 12.992510338796277 -11.92257163799303 -6.8143936217649435 32.39802667768277 80.1112071586182 82.25256154174991 33.798702573886075 5.27041129903532 6.254514798924017 27.863888518259376 14.320064592885103 0 0 0 0 0 0 0 0 0 0 0 0 0 0 0 0 0 0 0 0 0 0 0 0 0 0 0 0 0 0 0 0 0 0 0 0 0 0 0 0 0 0 0 0 0
0 -10.386017323533302 0.21911947617835065 0 -81.00107783373024 0 -37.43536516018922 -38.03877384564122 63.522502274390106 153.85650490381687 77.51977021624381 151.47574146587246 2.43953962487716 19.08813776813016 -0.4671254896602156 0 0 0 14.549449034674645 -5.675323921142258 -59.08091997278329 -4.709211652026738 38.51367496562483 -6.088376017453848 -2.6370005016727913 19.494102826775567 1.116680430554412 0 0 0 0 13.929633214116064 0 -0.6350257182349491 0.10763413295142625 -0.13784258366771382 0 0 0 14.271143054248718 13.393052013371964 11.773561378071632 6.782559215551214 32.355773901003815 -80.27157900945615 -81.98252746073969 33.79105488488735 -5.272645001325755 -6.307590404983298 27.963954663625557 -14.317176361375864 0 0 0 0 0 0 0 0 0 0 0 0 0 0 0 0 0 0 0 0 0 0 0 0 0 0 0 0 0 0 0 0 0 0 0 0 0 0 0 0 0 0 0 0 0 8.019702124400926 17.51876037710612 19.584769861558712 12.761947773410064 1.7669173341143136 11.680075911215098 0 0 0 0 0 0 0 0 0 -14.262798617154562 13.218005640221007 -12.174472000073697 -6.811223301979332 32.45764444572219 80.21872827742818 82.25256154174991 33.798702573886075 5.27041129903532 6.334804183371318 27.95407996901051 14.468549035983521 0 0 0 0 0 0 0 0 0 0 0 0 0 0 0 0 0 0 0 0 0 0 0 0 0 0 0 0 0 0 0 0 0 0 0 0 0 0 0 0 0 0 0 0 0
0 -10.386017323533302 0.22368442612486006 0 -80.81339524056726 0 -37.638130166457955 -38.117230124202614 63.660607977475664 153.85650490381687 77.51977021624381 151.47574146587246 2.4518853428898693 19.097477879831576 -0.5936032381325138 0 0 0 14.560529594566667 -6.089270075800069 -59.18895377575625 -4.759228728420482 38.81205388146867 -6.132462977482541 -2.6528025140981413 19.512199558085165 1.2569227723872445 0 0 0 0 13.929633214116064 0 -0.6350208833655533 -0.3582750252087249 -0.13266075414155556 0 0 0 14.4154955768745 13.621938179892457 12.018084473008175 6.7789226351145695 32.41326420032173 -80.37979961846794 -81.98252695210195 33.79105488488735 -5.272644867462644 -6.387407323670874 28.0542994536558 -14.462588674257214 0 0 0 0 0 0 0 0 0 0 0 0 0 0 0 0 0 0 0 0 0 0 0 0 0 0 0 0 0 0 0 0 0 0 0 0 0 0 0 0 0 0 0 0 0 8.008204099449504 17.25805299247642 19.54630777109323 12.759613243686289 1.3912341851069667 11.594952940830131 0 0 0 0 0 0 0 0 0 -14.407286722145157 13.442815957399338 -12.427108638423684 -6.807923415481558 32.5172449951479 80.32630384976441 82.25256154174991 33.798702573886075 5.27041129903532 6.41542043534327 28.044081770304366 14.617291277000106 0 0 0 0 0 0 0 0 0 0 0 0 0 0 0 0 0 0 0 0 0 0 0 0 0 0 0 0 0 0 0 0 0 0 0 0 0 0 0 0 0 0 0 0 0
